{
  "accessors": [
    {
      "bufferView": 2,
      "componentType": 5126,
      "count": 1573,
      "max": [
        1.0506176948547363,
        1.03512442111969,
        5.047415256500244
      ],
      "min": [
        -1.0323500633239746,
        -1.0478438138961792,
        0.24206647276878357
      ],
      "type": "VEC3"
    },
    {
      "bufferView": 2,
      "byteOffset": 18876,
      "componentType": 5126,
      "count": 1573,
      "max": [
        1.0,
        1.0,
        1.0
      ],
      "min": [
        -1.0,
        -1.0,
        -1.0
      ],
      "type": "VEC3"
    },
    {
      "bufferView": 3,
      "componentType": 5126,
      "count": 1573,
      "max": [
        1.0,
        1.0,
        0.9999022483825684,
        1.0
      ],
      "min": [
        -1.0,
        -1.0,
        -0.9975496530532837,
        -1.0
      ],
      "type": "VEC4"
    },
    {
      "bufferView": 1,
      "componentType": 5126,
      "count": 1573,
      "max": [
        0.9991649389266968,
        0.981632649898529
      ],
      "min": [
        0.0062120649963617325,
        0.007006509229540825
      ],
      "type": "VEC2"
    },
    {
      "bufferView": 1,
      "byteOffset": 12584,
      "componentType": 5126,
      "count": 1573,
      "max": [
        0.9991649389266968,
        0.981632649898529
      ],
      "min": [
        0.0062120649963617325,
        0.007006509229540825
      ],
      "type": "VEC2"
    },
    {
      "bufferView": 1,
      "byteOffset": 25168,
      "componentType": 5126,
      "count": 1573,
      "max": [
        0.9991649389266968,
        0.981632649898529
      ],
      "min": [
        0.0062120649963617325,
        0.007006509229540825
      ],
      "type": "VEC2"
    },
    {
      "bufferView": 1,
      "byteOffset": 37752,
      "componentType": 5126,
      "count": 1573,
      "max": [
        0.9991649389266968,
        0.981632649898529
      ],
      "min": [
        0.0062120649963617325,
        0.007006509229540825
      ],
      "type": "VEC2"
    },
    {
      "bufferView": 0,
      "componentType": 5125,
      "count": 5817,
      "type": "SCALAR"
    },
    {
      "bufferView": 2,
      "byteOffset": 37752,
      "componentType": 5126,
      "count": 911,
      "max": [
        0.8704361915588379,
        0.9292479753494263,
        3.734623670578003
      ],
      "min": [
        -0.8704361915588379,
        -1.0075287818908691,
        -0.02787691354751587
      ],
      "type": "VEC3"
    },
    {
      "bufferView": 2,
      "byteOffset": 48684,
      "componentType": 5126,
      "count": 911,
      "max": [
        0.9976227879524231,
        0.9992855787277222,
        0.7920973300933838
      ],
      "min": [
        -0.9993500709533691,
        -0.9976227879524231,
        -0.5929321646690369
      ],
      "type": "VEC3"
    },
    {
      "bufferView": 3,
      "byteOffset": 25168,
      "componentType": 5126,
      "count": 911,
      "max": [
        1.0,
        0.9999769926071167,
        0.7943745851516724,
        1.0
      ],
      "min": [
        -0.9999998211860657,
        -1.0,
        -0.9736451506614685,
        -1.0
      ],
      "type": "VEC4"
    },
    {
      "bufferView": 1,
      "byteOffset": 50336,
      "componentType": 5126,
      "count": 911,
      "max": [
        0.9934824109077454,
        0.9898615479469299
      ],
      "min": [
        0.0029024165123701096,
        0.032268375158309937
      ],
      "type": "VEC2"
    },
    {
      "bufferView": 1,
      "byteOffset": 57624,
      "componentType": 5126,
      "count": 911,
      "max": [
        0.9934824109077454,
        0.9898615479469299
      ],
      "min": [
        0.0029024165123701096,
        0.032268375158309937
      ],
      "type": "VEC2"
    },
    {
      "bufferView": 1,
      "byteOffset": 64912,
      "componentType": 5126,
      "count": 911,
      "max": [
        0.9934824109077454,
        0.9898615479469299
      ],
      "min": [
        0.0029024165123701096,
        0.032268375158309937
      ],
      "type": "VEC2"
    },
    {
      "bufferView": 1,
      "byteOffset": 72200,
      "componentType": 5126,
      "count": 911,
      "max": [
        0.9934824109077454,
        0.9898615479469299
      ],
      "min": [
        0.0029024165123701096,
        0.032268375158309937
      ],
      "type": "VEC2"
    },
    {
      "bufferView": 0,
      "byteOffset": 23268,
      "componentType": 5125,
      "count": 4806,
      "type": "SCALAR"
    }
  ],
  "asset": {
    "extras": {
      "author": "zkx.model (https://sketchfab.com/zkx.model)",
      "license": "CC-BY-4.0 (http://creativecommons.org/licenses/by/4.0/)",
      "source": "https://sketchfab.com/3d-models/world-cup-e4ed01e661ae4f9ba1b629c3855d39f6",
      "title": "World Cup"
    },
    "generator": "Sketchfab-15.42.0",
    "version": "2.0"
  },
  "bufferViews": [
    {
      "buffer": 0,
      "byteLength": 42492,
      "name": "floatBufferViews",
      "target": 34963
    },
    {
      "buffer": 0,
      "byteLength": 79488,
      "byteOffset": 42492,
      "byteStride": 8,
      "name": "floatBufferViews",
      "target": 34962
    },
    {
      "buffer": 0,
      "byteLength": 59616,
      "byteOffset": 121980,
      "byteStride": 12,
      "name": "floatBufferViews",
      "target": 34962
    },
    {
      "buffer": 0,
      "byteLength": 39744,
      "byteOffset": 181596,
      "byteStride": 16,
      "name": "floatBufferViews",
      "target": 34962
    }
  ],
  "buffers": [
    {
      "byteLength": 221340,
      "uri": "scene.bin"
    }
  ],
  "images": [
    {
      "uri": "textures/globe_baseColor.png"
    },
    {
      "uri": "textures/globe_metallicRoughness.png"
    },
    {
      "uri": "textures/globe_normal.png"
    },
    {
      "uri": "textures/body_baseColor.png"
    },
    {
      "uri": "textures/body_metallicRoughness.png"
    },
    {
      "uri": "textures/body_normal.png"
    }
  ],
  "materials": [
    {
      "doubleSided": true,
      "name": "globe",
      "normalTexture": {
        "index": 2
      },
      "pbrMetallicRoughness": {
        "baseColorTexture": {
          "index": 0
        },
        "metallicRoughnessTexture": {
          "index": 1
        }
      }
    },
    {
      "doubleSided": true,
      "name": "body",
      "normalTexture": {
        "index": 5
      },
      "pbrMetallicRoughness": {
        "baseColorTexture": {
          "index": 3
        },
        "metallicRoughnessTexture": {
          "index": 4
        }
      }
    }
  ],
  "meshes": [
    {
      "name": "Object_0",
      "primitives": [
        {
          "attributes": {
            "NORMAL": 1,
            "POSITION": 0,
            "TANGENT": 2,
            "TEXCOORD_0": 3,
            "TEXCOORD_1": 4,
            "TEXCOORD_2": 5,
            "TEXCOORD_3": 6
          },
          "indices": 7,
          "material": 0,
          "mode": 4
        }
      ]
    },
    {
      "name": "Object_1",
      "primitives": [
        {
          "attributes": {
            "NORMAL": 9,
            "POSITION": 8,
            "TANGENT": 10,
            "TEXCOORD_0": 11,
            "TEXCOORD_1": 12,
            "TEXCOORD_2": 13,
            "TEXCOORD_3": 14
          },
          "indices": 15,
          "material": 1,
          "mode": 4
        }
      ]
    }
  ],
  "nodes": [
    {
      "children": [
        1
      ],
      "matrix": [
        1.0,
        0.0,
        0.0,
        0.0,
        0.0,
        2.220446049250313e-16,
        -1.0,
        0.0,
        0.0,
        1.0,
        2.220446049250313e-16,
        0.0,
        0.0,
        0.0,
        0.0,
        1.0
      ],
      "name": "Sketchfab_model"
    },
    {
      "children": [
        2
      ],
      "name": "root"
    },
    {
      "children": [
        3
      ],
      "matrix": [
        1.0,
        0.0,
        0.0,
        0.0,
        0.0,
        2.220446049250313e-16,
        1.0,
        0.0,
        0.0,
        -1.0,
        2.220446049250313e-16,
        0.0,
        0.0,
        0.0,
        0.0,
        1.0
      ],
      "name": "GLTF_SceneRootNode"
    },
    {
      "children": [
        4
      ],
      "matrix": [
        1.0,
        0.0,
        0.0,
        0.0,
        0.0,
        2.220446049250313e-16,
        -1.0,
        0.0,
        0.0,
        1.0,
        2.220446049250313e-16,
        0.0,
        0.0,
        0.0,
        0.0,
        1.0
      ],
      "name": "Sketchfab_model_0"
    },
    {
      "children": [
        5
      ],
      "matrix": [
        1.0,
        0.0,
        0.0,
        0.0,
        0.0,
        0.0,
        1.0,
        0.0,
        0.0,
        -1.0,
        0.0,
        0.0,
        0.0,
        0.0,
        0.0,
        1.0
      ],
      "name": "a19dbd42aa97483385fda3d99bc39821.fbx_1"
    },
    {
      "children": [
        6,
        9
      ],
      "name": "RootNode_2"
    },
    {
      "children": [
        7
      ],
      "matrix": [
        100.0,
        0.0,
        0.0,
        0.0,
        0.0,
        -1.6292067812173627e-05,
        -100.0,
        0.0,
        0.0,
        100.0,
        -1.6292067812173627e-05,
        0.0,
        0.0,
        0.0,
        0.0,
        1.0
      ],
      "name": "wctrophy_globe_low_3"
    },
    {
      "children": [
        8
      ],
      "name": "wctrophy_globe_low_globe_0_4"
    },
    {
      "mesh": 0,
      "name": "Object_8"
    },
    {
      "children": [
        10
      ],
      "matrix": [
        100.0,
        0.0,
        0.0,
        0.0,
        0.0,
        -1.6292067812173627e-05,
        -100.0,
        0.0,
        0.0,
        100.0,
        -1.6292067812173627e-05,
        0.0,
        0.0,
        0.0,
        0.0,
        1.0
      ],
      "name": "wctrophy_body_low_5"
    },
    {
      "children": [
        11
      ],
      "name": "wctrophy_body_low_body_0_6"
    },
    {
      "mesh": 1,
      "name": "Object_11"
    }
  ],
  "samplers": [
    {
      "magFilter": 9729,
      "minFilter": 9987,
      "wrapS": 10497,
      "wrapT": 10497
    }
  ],
  "scene": 0,
  "scenes": [
    {
      "name": "Sketchfab_Scene",
      "nodes": [
        0
      ]
    }
  ],
  "textures": [
    {
      "sampler": 0,
      "source": 0
    },
    {
      "sampler": 0,
      "source": 1
    },
    {
      "sampler": 0,
      "source": 2
    },
    {
      "sampler": 0,
      "source": 3
    },
    {
      "sampler": 0,
      "source": 4
    },
    {
      "sampler": 0,
      "source": 5
    }
  ]
}
